<?xml version="1.0" encoding="UTF-8"?>
<svg id="a" data-name="Layer_1" xmlns="http://www.w3.org/2000/svg" xmlns:xlink="http://www.w3.org/1999/xlink" viewBox="0 0 179 45">
  <defs>
    <linearGradient id="e" x1="74.81" y1="34.96" x2="75.81" y2="34.96" gradientTransform="translate(-1827.38 872) scale(24.46 -24)" gradientUnits="userSpaceOnUse">
      <stop offset="0" stop-color="#f27744"/>
      <stop offset="1" stop-color="#ed4270"/>
    </linearGradient>
  </defs>
  <g id="b" data-name="UI">
    <g id="c" data-name="Holiday-Shop-1440">
      <g id="d" data-name="Price-Logo-2022">
        <path id="f" data-name="Price-tag" d="M14.81,22.98l-.94.82-3.87,3.53-7.03,6.48-.12.12,10.08,11.07,11.95-10.95c2.02-1.87,2.8-4.57,2.28-7.06h0c-1.24.21-2.5.35-3.81.35h0s-.08-.01-.12-.02h0c-.27.42-.75.69-1.28.61h0c-.82,0-1.41-.71-1.41-1.53h0c0-.82.7-1.41,1.52-1.41h0c.82,0,1.41.71,1.41,1.53h0s0,.08,0,.11h0c1.16-.01,2.35-.1,3.53-.29h0c-.31-1.04-.86-2.03-1.65-2.88h0c-.61-.67-1.31-1.2-2.06-1.59h0c-.24-.12-.48-.23-.72-.33h0c-.88-.35-1.81-.53-2.75-.53h0c-1.79,0-3.58.65-5.02,1.98" fill="url(#e)" fill-rule="evenodd"/>
        <path id="g" data-name="String" d="M31.26,15.03c-2.86.35-6.89,3.92-8.74,6.48.24.1.48.19.71.31,1.64-2.21,5.33-5.78,8.07-6.01,2.42-.23,4.1.26,4.91,2.58.69,1.97-.58,3.95-2.07,5.11-1.5,1.16-3.22,1.86-5.06,2.32-.75.22-1.52.39-2.29.52.06.21.12.46.17.67.75-.13,1.49-.32,2.24-.5,2.07-.58,4.14-1.39,5.75-2.79,1.5-1.51,2.65-3.6,1.96-5.69-.81-2.32-2.88-3.25-5.64-3.02Z" fill="#222" fill-rule="evenodd"/>
        <path id="h" data-name="Hand" d="M13.62,23.51l-.81-.98c-2.79-3.17-7.44-3.41-10.46-.49-3.02,2.93-3.11,7.78-.31,10.95.26.29.55.6.83.93l7.15-6.59,2.69,3.13c2.33,2.44,4.77,1.83,6.63.12.23-.24.23-.49,0-.73l-5.7-6.34Z" fill="#222" fill-rule="evenodd"/>
        <path id="i" data-name="Price.com" d="M26.78,26.36c.07.22.12.45.17.67-1.24.22-2.29.31-3.59.31h.02s-.11,0-.17-.01l-.1-.02c-.34-.07-.28-.64.13-.66.07,0,.16-.01.23-.01h0c.99-.02,1.85-.06,2.82-.2l.49-.08ZM36.22,6.44C41.79,1.66,50.76-.67,58.17.17c9.17,1.05,9.16,7.01,9.17,8.93.08,10.16-17.93,14.47-23.6,14.8-2.85,4.82-7.32,17.49-6.24,20.47.69,1.89-6.5-.68-6.54-4.41-.02-2.5,4.68-13.76,6.9-17-5.17-.79-6.13-4.65-6.13-4.65,0,0-.47-.94.27-1.36.75-.43,1.22.06,1.22.06,0,0,.02.15.04.31.01.06.19.59.33.8.97,1.45,3.22,2.01,5.62,2.14.26-.01.52-.03.77-.06.93-1.12,2.17-2.51,3.45-3.91l.45-.5c2.8-3.06,5.66-6.05,5.93-6.34.45-.48,2.69,2.42,2.06,3.16-.35.41-1.74,2.16-3.16,4l-.39.5c-.77,1.01-1.52,2-2.09,2.79,7.54-1.88,19.97-9.69,17.33-13.52-2.32-3.36-9.71-1.83-16.31,1.01-3.24,1.4-6.21,3.15-8.36,5.01-.73.63-1.97.03-2.2-1.05-.26-1.23-.54-2.47-.83-3.7-.11-.47,0-.93.32-1.2ZM59.67,21.39c.41-.03.84-.01,1.22.14.78.31,1.27,1.16,1.35,2.01.08.85-.18,1.7-.53,2.48-.13.29-.28.57-.43.84.33,0,.67,0,1,.01.14,0,.27,0,.41.01.07,0,.15,0,.22,0,1.09.07,2.18.25,3.17.71.28.11.53.22.74.35.28.17.65.38.6.71-.02.16-.14.29-.25.4-1.67,1.78-3.14,3.75-4.4,5.86-.64,1.08-1.22,2.2-1.74,3.34-.61,1.34-.03,1.51,1.16.82,2.07-1.19,4.09-2.49,6.03-3.88.52-.37,1.04-.76,1.55-1.15.05-.15.1-.3.15-.45,1.56-4.47,3.62-7.81,4.49-8.99.54-.73,4.45,1.91,4,2.54-.77,1.09-5.67,11.29-4.3,11.29,1.26,0,5.06-4.34,5.94-5.46,2.09-4.43,6-8.38,8.86-8.38,3.91,0,4.73,3.14,3.18,7.1-.47,1.21-2.93.28-2.73-.07.89-1.53,1.93-3.58.77-3.58-2.61,0-8.13,8.8-6.21,10.48,2.17,1.89,6.86-1.62,9.29-3.74.19-.52.4-1.05.64-1.57,2.07-4.52,6.06-8.62,8.97-8.62,5.35,0,5.1,9.82-4.82,11.52-.19.03-.33.02-.44-.02-.25,1.11-.21,2.01.27,2.43,2.95,2.57,10.6-4.86,10.81-5.19.32-.5.75,1.99.43,2.49-.1.16-7.15,8.41-13.1,8.41-2.7,0-3.85-2.34-3.63-5.5-2.62,2.43-6.66,5.5-10.28,5.5-2.84,0-3.97-2.59-3.58-6-2.1,2.59-5.1,6-6.29,6-2.64,0-3.61-3.03-3.19-6.71-.15.12-.27.22-.36.3-1.85,1.59-3.8,3.05-5.85,4.36-1.61,1.04-4.61,3.07-6.31,1.07-1.4-1.65-.28-4.36.49-6,.27-.58,3.24-6.46,3.57-6.34-.63-.24-1.3-.39-1.97-.51-.1-.02-.48.37-.88.8l-.26.29c-.35.39-.66.76-.76.85-.74.69-1.51,1.35-2.31,1.97-1.33,1.03-2.96,2.37-4.62,2.71.03-.64.27-1.56.67-2.07.37-.46.86-.5,1.36-.8,1.32-.78,2.54-1.75,3.67-2.8.46-.42.9-.86,1.32-1.33-.5-.13-.98-.3-1.43-.55-1.1-.61-1.92-1.74-1.73-3.06.18-1.3,1.05-2.46,1.99-3.31.93-.84,2.09-1.44,3.31-1.67.25-.05.49-.08.74-.09ZM109.01,39.7c.56-.22,1.26.03,1.86.27,1.13.44,1.8.71,1.58,1.94-.14.78-.93,2.16-1.74,2.33-.63.13-2.37-.48-2.84-1.05-.07-.08-.13-.17-.17-.27-.41-.84.1-2.04.52-2.58.21-.27.47-.51.79-.64ZM103.62,27.68c-1.64,0-4.24,3.6-5.49,6.71,4.79-1.85,6.63-6.71,5.49-6.71ZM58.47,24.49c-.43-.21-.97.01-1.26.4-.22.29-.41.71-.34,1.09.01.07.03.13.06.19.08.08.18.15.27.2.48.28,1.02.39,1.57.45.06-.2.12-.39.17-.6.14-.63.1-1.45-.47-1.73ZM79.02,17.27c.47-.88,5.08,1.11,4.61,1.78-.47.67-3.92,4.61-3.9,4.94.06.83-3.39-1.59-3.09-2.22.3-.64,1.69-3.21,2.38-4.5ZM139.9,37.29c-1.08,1.75-2.64,3.04-4.6,3.04-3.4,0-.25-10.04,3.25-12.43.3-.09.62-.15.96-.15,1.33,0,2.01,1.29,2.11,3.04-3.05.49-3.49,4.87-1.72,6.51M178.46,33.32c-.32.5-4.46,5.36-5.76,5.36s3.32-9.62,4.05-10.65c.4-.57-2.91-2.85-3.68-2.48-1.68.43-7.21,6.55-10.84,10.67.44-1.24,1.09-2.78,1.74-4.19,0,0,0,0,0,0h0c.88-1.92,1.75-3.61,2.03-4.01.4-.57-2.91-2.85-3.68-2.48-1.76.45-7.74,7.14-11.34,11.24,2.18-4.67,4.29-9.51,4.69-10.22.35-.64-3.23-2.72-3.92-2.01-.61.63-4.58,8.69-4.61,8.72-.2.19-1.85,2.02-3.2,2.3,1.42-5.04.25-10.4-3.93-10.4-1.1,0-1.84.32-2.35.74-3.6.08-6.56,4.1-7.74,8.35-2.16,1.99-7.53,6.34-9.88,4.28-1.92-1.68,3.6-10.48,6.21-10.48,1.15,0,.11,2.05-.77,3.58-.2.35,2.25,1.28,2.73.07,1.55-3.97.74-7.1-3.18-7.1-2.91,0-6.91,4.1-8.97,8.62-2.53,5.54-2.01,11.03,2.12,11.03s8.67-3.87,11.19-6.36c-.07,3.48,1.37,6.36,5.04,6.36,4.22,0,7.21-2.98,8.79-6.59,1.03-.29,1.95-.8,2.69-1.31-.55,1.22-.98,2.21-1.2,2.74-.84,2.04.77,5.29,2.17,5.16.17-.02.45-.37.82-.96,1.9-2.03,9.04-10.54,12.71-14.15-1.89,3.85-4.52,9.48-4.71,9.95-.84,2.04.77,5.29,2.17,5.16.16-.02.48-.5.92-1.34,2.19-2.42,8.25-9.6,11.83-13.24-.63,1.27-1.28,2.77-1.86,4.43-1.71,4.88-1.22,10.04,2.14,10.04,1.76,0,7.69-7.85,8.01-8.35.32-.5-.11-2.99-.43-2.49" fill="#222" fill-rule="evenodd"/>
      </g>
    </g>
  </g>
</svg>